<svg width="512" height="512" viewBox="0 0 512 512" fill="none" xmlns="http://www.w3.org/2000/svg">
  <rect width="512" height="512" rx="80" fill="#1E3A8A"/>
  <!-- ASB crest, scaled and centred: native 48×60, target ~260×325, offset x=126 y=94 -->
  <g transform="translate(126, 94) scale(5.417)">
    <path fill-rule="evenodd" clip-rule="evenodd" d="M0 27.5332V29.6021H8.13289V27.5332H5.90033V26.5782L9.56811 20.6897H21.0498L22.4851 26.5782V27.5332H19.1362V29.6021H30.9369V27.5332H29.3422L22.4851 0H19.1362L2.5515 27.5332H0ZM17.701 6.68435L20.5714 18.4615H10.6844L17.701 6.68435Z" fill="white"/>
    <path fill-rule="evenodd" clip-rule="evenodd" d="M15.6279 30.557V32.7851C16.5316 32.679 18.2751 32.817 18.0199 34.2175C17.7648 35.618 15.1495 49.3369 13.8738 56.0212C13.8738 56.7639 13.1402 58.2175 10.206 58.0902V60H26.3123C28.9169 59.947 34.2538 58.2493 34.7641 51.8833C34.9236 49.7613 33.903 45.3581 28.5449 44.7215C30.9369 44.0318 35.8166 41.443 36.1993 36.6048C36.5821 31.7666 31.2558 30.557 28.5449 30.557H15.6279ZM24.0797 32.626L21.6877 43.9257C24.1329 44.0318 29.2465 43.0345 30.1395 38.1963C30.6711 36.1804 30.2033 32.244 24.0797 32.626ZM21.1678 45.9947L19.2542 55.5438C19.0416 56.2865 18.9672 57.7719 20.3705 57.7719C20.3876 57.7719 20.405 57.7719 20.4226 57.7719C20.452 57.772 20.4821 57.772 20.5129 57.7721C22.3551 57.7763 26.6271 57.786 28.025 52.3607C29.4602 46.7905 23.8788 45.6764 21.1678 45.9947Z" fill="white"/>
    <path d="M28.5449 35.1724H25.6744L24.8771 41.061L31.0963 42.0159C37.6346 42.9708 45.608 39.4695 45.4485 33.1034C45.289 26.7374 36.6777 22.7586 35.2425 20.0531C33.8073 17.3475 35.2425 14.4828 39.7076 13.8462C43.2797 13.3369 44.2791 15.2255 44.3322 16.2334L43.8538 18.7798H47.0432L48 13.3687C45.289 12.0955 42.2591 11.9363 38.7508 11.7772C35.2425 11.618 29.6611 13.8462 29.0233 19.2573C28.513 23.5862 32 27.1088 33.8073 28.3289C35.7209 29.443 39.3887 32.3714 38.7508 35.1724C37.9535 38.6737 36.5183 40.2653 31.8937 40.1061C28.194 39.9788 28.1196 36.7639 28.5449 35.1724Z" fill="white"/>
  </g>
</svg>
